<?xml version="1.0"?>
<svg version="1.1" xmlns="http://www.w3.org/2000/svg" width="400px" height="200px" style="border: dashed 2px #aaa"><path fill="#" d="M32.02734375,105.615234375l0-3.759765625l0-3.857421875q0.048828125-3.90625,0.3173828125-7.4951171875t0.7568359375-5.9814453125q0.29296875-1.318359375,1.7578125-1.611328125t2.5390625-0.29296875q2.001953125,0,2.9541015625,0.48828125t1.2451171875,1.3916015625t0.244140625,2.1484375t-0.048828125,2.8564453125q0,2.294921875-0.09765625,6.396484375t-0.146484375,9.08203125l0,2.490234375q0,3.759765625,0.09765625,7.763671875q0.146484375,5.37109375,0.5615234375,10.2783203125t1.1474609375,8.837890625t2.05078125,6.0302734375q2.099609375-1.904296875,4.19921875-5.3466796875t4.00390625-7.7392578125t3.6376953125-9.0576171875t3.1494140625-9.3017578125t2.4169921875-8.544921875t1.4892578125-6.787109375q0.78125-4.00390625,1.0498046875-8.154296875t0.2685546875-9.228515625q1.513671875-1.806640625,2.34375-2.2705078125t2.63671875-0.4638671875q0.87890625,0,1.7822265625,0.146484375t1.7333984375,0.68359375l0.68359375,1.07421875l0,1.220703125q0,8.88671875-0.8544921875,18.0419921875t-1.806640625,18.408203125t-1.806640625,18.5546875t-0.8544921875,18.4814453125q0,1.416015625,0.1220703125,3.0029296875t0.5126953125,3.0029296875l-0.1953125,0.5859375q-0.68359375,1.123046875-2.24609375,1.416015625t-2.685546875,0.29296875q-2.392578125,0-3.5888671875-0.7080078125t-1.5869140625-1.953125t-0.341796875-2.880859375t0.048828125-3.5400390625q0-6.591796875,0.5859375-13.4033203125t1.416015625-13.4033203125q-0.78125,2.294921875-1.85546875,5.5419921875t-2.5146484375,6.494140625t-3.3447265625,5.95703125t-4.19921875,3.8818359375l0.09765625-0.09765625l-0.390625,0.1953125l0.09765625,0q-1.416015625,0.78125-2.6123046875,1.0498046875t-2.8076171875,0.2685546875q-3.22265625,0-5.3466796875-1.904296875t-3.4423828125-4.9072265625t-1.953125-6.73828125t-0.9033203125-7.4951171875t-0.2685546875-7.1533203125l0-5.5908203125q0-2.685546875-0.048828125-6.396484375z M49.41015625,144.482421875q0.09765625,0,0.09765625-0.09765625l0.09765625,0q-0.09765625,0.09765625-0.1953125,0.09765625z M84.79443359375,149.31640625q0.1953125-10.205078125,0.8544921875-20.361328125t1.1474609375-20.361328125q0.09765625-3.90625,0.09765625-7.1044921875t0.3173828125-5.5419921875t1.171875-3.5888671875t2.8564453125-1.2451171875q1.708984375,0,2.587890625,0.48828125t1.3427734375,1.2451171875t0.5615234375,1.708984375t0.09765625,1.9287109375q0,1.416015625,0.09765625,2.8076171875t0.09765625,2.8076171875q0,10.302734375-0.5615234375,20.556640625t-0.5615234375,20.654296875q0,1.513671875,0.048828125,3.0517578125t0.048828125,3.1494140625q0,0.5859375-0.537109375,0.9765625t-1.3427734375,0.6591796875t-1.708984375,0.3662109375t-1.4892578125,0.09765625q-0.68359375,0-1.5380859375-0.09765625t-1.66015625-0.4150390625t-1.3671875-0.7568359375t-0.5615234375-1.025390625z M87.52880859375,83.10546875q0-0.48828125,0.146484375-1.0986328125t0.341796875-1.0986328125q0.09765625-0.5859375,0.29296875-2.001953125t0.7080078125-2.7587890625t1.416015625-2.392578125t2.5634765625-1.0498046875l0.927734375,0q0.78125,0.1953125,1.5869140625,0.48828125t0.8056640625,1.416015625q0,0.48828125-0.048828125,0.927734375t-0.146484375,0.9765625q-0.390625,2.880859375-0.7568359375,4.541015625t-0.8544921875,2.5146484375t-1.2451171875,1.0986328125t-1.9287109375,0.341796875q-0.390625,0-1.0498046875-0.048828125t-1.26953125-0.244140625t-1.0498046875-0.6103515625t-0.439453125-1.0009765625z M125.33837890625,88.0859375q0-2.294921875,0.1220703125-4.541015625t0.4150390625-4.443359375q0.1953125-1.123046875,1.7333984375-1.611328125t2.5634765625-0.48828125l1.171875,0.09765625q1.416015625,0.1953125,2.8564453125-0.1953125t2.8564453125-0.390625q3.3203125,0,7.421875,0.732421875t7.6904296875,2.490234375t6.0302734375,4.6142578125t2.44140625,7.0556640625t-2.5390625,7.8369140625t-6.396484375,6.396484375t-8.30078125,4.3212890625t-8.154296875,1.5625q0.390625,9.423828125,1.0986328125,18.701171875t2.4169921875,18.5546875l0.09765625,0.634765625q0,0.68359375-0.6103515625,1.123046875t-1.4404296875,0.7080078125t-1.6845703125,0.3662109375t-1.3916015625,0.09765625q-1.220703125,0-2.9541015625-0.4638671875t-2.1240234375-1.8310546875q-1.123046875-4.296875-1.7578125-9.4482421875t-0.927734375-10.7666015625t-0.4150390625-11.3037109375t-0.1220703125-11.1083984375l0-10.986328125q0-1.806640625-0.048828125-3.759765625t-0.048828125-3.955078125z M134.56689453125,80.17578125q0,6.689453125,0.146484375,13.3544921875t0.341796875,13.3544921875q2.880859375-0.5859375,5.8837890625-2.0751953125t5.419921875-3.5400390625t3.90625-4.6630859375t1.4892578125-5.4931640625q0-2.587890625-1.2939453125-4.638671875t-3.3447265625-3.515625q-2.001953125-1.416015625-4.541015625-2.197265625q-2.24609375-0.68359375-4.39453125-0.68359375l-0.537109375,0z M170.634765625,118.115234375q0-2.001953125,0.7080078125-3.369140625t3.0029296875-1.3671875q0.87890625,0,2.197265625,0.2685546875t1.513671875,1.3427734375q0.48828125,2.880859375,0.537109375,6.25t0.341796875,6.34765625q1.123046875-2.197265625,2.880859375-4.736328125t4.00390625-4.6875t4.8828125-3.564453125t5.37109375-1.416015625q0.1953125,0,0.732421875,0.146484375t1.0009765625,0.4150390625t0.5615234375,0.6103515625t-0.537109375,0.634765625q-0.1953125,0.5859375-0.830078125,0.7080078125t-1.123046875,0.1220703125q-0.29296875,0-0.927734375-0.244140625q-3.61328125,1.904296875-6.15234375,5.17578125t-4.150390625,7.2509765625t-2.34375,8.3984375t-0.732421875,8.6181640625q0,2.099609375-0.9521484375,2.5390625t-3.0517578125,0.439453125q-1.123046875,0-2.3681640625-0.244140625t-1.7333984375-1.5625q-0.87890625-2.783203125-1.4404296875-6.396484375t-0.8544921875-7.4462890625t-0.4150390625-7.5439453125t-0.1220703125-6.689453125z M204.35888671875,132.71484375q0-2.783203125,0.7080078125-5.7373046875t2.24609375-5.322265625t3.8818359375-3.857421875t5.6640625-1.4892578125q2.490234375,0,5.2490234375,0.8544921875t5.0537109375,2.44140625t3.7353515625,3.8818359375t1.4404296875,5.126953125q0,3.41796875-1.2451171875,6.494140625t-3.4912109375,5.4931640625t-5.2490234375,3.80859375t-6.5185546875,1.3916015625q-2.880859375,0-5.029296875-1.0498046875t-3.5888671875-2.8076171875t-2.1484375-4.150390625t-0.7080078125-5.078125z M211.53662109375,132.6171875q0,0.87890625,0.2685546875,2.587890625t0.8056640625,3.3447265625t1.3916015625,2.83203125t2.0751953125,1.0986328125q2.587890625-0.29296875,4.2724609375-1.6845703125t2.734375-3.3935546875t1.46484375-4.345703125t0.4150390625-4.443359375q0-2.685546875-1.0498046875-4.4921875t-3.4423828125-2.9296875q0,0.09765625,0.09765625,0.09765625t0.09765625-0.09765625l-1.220703125-0.29296875q-0.48828125-0.1953125-1.1962890625-0.439453125t-1.3916015625-1.07421875q-1.904296875,0.68359375-2.9541015625,1.7578125t-1.5869140625,2.6123046875t-0.6591796875,3.6865234375t-0.1220703125,5.17578125z M233.126953125,184.0087890625q0.1708984375-0.7080078125,0.7080078125-1.0986328125t1.7578125-0.390625q1.318359375,0,2.490234375,0.78125t1.708984375,1.904296875q1.708984375-2.685546875,2.685546875-6.25t1.4892578125-7.421875t0.6103515625-7.5927734375t0.09765625-6.8603515625q0-9.814453125,0.244140625-19.287109375t0.78125-19.287109375q0-0.68359375,0.5859375-1.1474609375t1.3427734375-0.7080078125t1.5625-0.341796875t1.3916015625-0.09765625q1.123046875,0,2.197265625,0.29296875t2.001953125,0.87890625l0.5859375,1.123046875q-0.09765625,6.982421875-0.390625,13.9404296875t-0.29296875,13.8427734375q0,2.685546875,0.09765625,7.03125q0.048828125,1.416015625,0.048828125,2.9296875q0,3.02734375-0.146484375,6.34765625q-0.1953125,4.98046875-0.8544921875,10.0341796875t-2.1484375,9.1552734375t-4.052734375,6.7138671875t-6.4697265625,2.6123046875q-1.708984375,0-3.1982421875-0.4150390625t-2.6611328125-1.5869140625q-1.123046875-0.9765625-1.611328125-2.099609375q-0.29296875-0.68359375-0.5126953125-1.4892578125t-0.048828125-1.513671875z M246.9697265625,105.908203125l0-3.0029296875t0.341796875-2.63671875t1.2939453125-1.85546875t2.7587890625-0.7080078125q0.68359375,0,1.3916015625,0.09765625t1.3427734375,0.390625l1.07421875,1.220703125q0,1.416015625,0.048828125,3.125l0,0.390625q0,1.46484375-0.29296875,2.734375q-0.341796875,1.513671875-1.2451171875,2.5634765625t-2.8076171875,1.0498046875q-1.513671875,0-2.294921875-0.439453125t-1.513671875-1.85546875z M265.36181640625,133.7890625q0-3.41796875,0.7568359375-8.056640625t2.5634765625-8.7890625t4.7607421875-7.0556640625t7.4462890625-2.9052734375q4.19921875,0,6.298828125,2.4169921875t2.099609375,6.5185546875q0,2.685546875-1.0009765625,5.8837890625t-2.8564453125,6.0546875t-4.39453125,4.7607421875t-5.6640625,1.904296875l-1.26953125-0.09765625q0,1.318359375,0.390625,3.5400390625t1.1474609375,4.4189453125t1.953125,3.857421875t2.9052734375,1.66015625q2.490234375,0,4.78515625-2.001953125t4.345703125-4.443359375t3.80859375-4.443359375t3.22265625-2.001953125q0.78125,0,1.611328125,0.244140625t0.927734375,1.3671875q0,0.68359375-0.3662109375,1.123046875t-0.6591796875,0.9765625q-1.513671875,2.587890625-3.2958984375,4.931640625t-4.0283203125,4.248046875t-4.9072265625,3.0029296875t-5.8837890625,1.0986328125q-4.19921875,0-6.982421875-1.4892578125t-4.4921875-4.00390625t-2.4658203125-5.810546875t-0.7568359375-6.9091796875z M274.10205078125,130.078125l1.3671875,1.220703125q0.9765625,0.87890625,1.953125,0.390625t1.7578125-1.7822265625t1.4404296875-3.1982421875t1.171875-3.90625t0.7568359375-3.90625t0.244140625-3.173828125l0-1.66015625t-0.146484375-1.7578125t-0.5126953125-1.3916015625t-1.1474609375-0.7080078125q-0.244140625-0.048828125-0.439453125-0.048828125q-1.66015625,0-2.83203125,2.099609375q-1.26953125,2.34375-2.05078125,5.6884765625t-1.123046875,6.8603515625t-0.439453125,5.2734375z M306.166015625,130.810546875q0-3.515625,0.9033203125-7.0556640625t2.8076171875-6.34765625t4.8583984375-4.5654296875t6.9580078125-1.7578125q1.708984375,0,3.759765625,0.4150390625t3.7841796875,1.318359375t2.9296875,2.34375t1.1962890625,3.5400390625q0,1.318359375-0.68359375,1.7578125t-1.806640625,0.439453125l-0.341796875-0.48828125t-0.9521484375-1.2451171875t-1.2939453125-1.611328125t-1.318359375-1.4404296875q-2.001953125-2.001953125-3.759765625-2.1484375l-0.390625,0q-1.46484375,0-2.734375,0.87890625q-1.416015625,1.07421875-2.5146484375,3.02734375t-1.8310546875,4.150390625t-1.1474609375,4.443359375t-0.4150390625,3.7109375q0,2.001953125,0.4638671875,4.5654296875t1.5625,4.8583984375t2.783203125,3.857421875t4.3212890625,1.5625q2.392578125,0,4.345703125-1.171875t3.7353515625-2.6123046875t3.4912109375-2.587890625t3.515625-1.1474609375q0.78125,0,1.5869140625,0.1953125t0.8056640625,1.025390625l0,0.29296875q-0.87890625,2.294921875-2.978515625,4.052734375t-4.7119140625,3.0517578125t-5.419921875,1.9287109375t-5.0048828125,0.634765625q-4.1015625,0-7.2021484375-1.3427734375t-5.1513671875-3.6865234375t-3.1005859375-5.6396484375t-1.0498046875-7.2021484375z M346.77490234375,100.78125q0-0.68359375,1.46484375-1.171875t3.3203125-0.8056640625t3.5888671875-0.4638671875t2.3681640625-0.244140625q0-1.318359375,0.09765625-2.6611328125t0.537109375-2.392578125t1.3916015625-1.6845703125t2.6611328125-0.634765625q1.416015625,0,2.1484375,0.341796875t1.5625,1.416015625q0.1953125,0.5859375,0.1953125,1.123046875l0,1.6357421875t-0.09765625,1.6845703125q1.806640625-0.1953125,3.5888671875-0.4638671875t3.5888671875-0.2685546875q1.318359375,0,1.806640625,0.048828125t0.9765625,1.171875q0.390625,1.123046875-0.9521484375,1.708984375t-3.22265625,0.87890625t-3.7353515625,0.439453125t-2.24609375,0.146484375q-0.5859375,8.3984375-1.1962890625,16.650390625t-0.6103515625,16.748046875q0,3.80859375,0.244140625,7.861328125t1.3671875,7.666015625q0.29296875,1.123046875,0.9765625,2.099609375t0.68359375,2.099609375q0,0.68359375-0.537109375,1.07421875t-1.2939453125,0.6591796875t-1.513671875,0.3173828125t-1.2451171875,0.048828125q-3.076171875,0-4.6875-2.294921875t-2.3193359375-5.4931640625t-0.7568359375-6.5673828125t-0.048828125-5.46875q0-4.296875,0.1708984375-8.7890625t0.4150390625-8.88671875t0.68359375-8.59375t1.025390625-7.8125q-1.708984375,0.1953125-3.3447265625,0.439453125t-3.3447265625,0.244140625q-0.390625,0-1.0498046875-0.048828125t-1.2451171875-0.244140625t-1.0009765625-0.537109375t-0.4150390625-0.9765625z"/><path fill="#" d=""/></svg>
